<svg width="63" height="16" viewBox="0 0 63 16" fill="none" xmlns="http://www.w3.org/2000/svg">
<path d="M1.72602 15.1C1.47268 15.1 1.27268 15.0267 1.12602 14.88C0.979349 14.72 0.906016 14.5133 0.906016 14.26V1.7C0.906016 1.46 0.979349 1.26667 1.12602 1.12C1.28602 0.973333 1.49268 0.899999 1.74602 0.899999H9.02602C9.26602 0.899999 9.45268 0.959999 9.58602 1.08C9.71935 1.2 9.78602 1.37333 9.78602 1.6C9.78602 1.81333 9.71935 1.98 9.58602 2.1C9.45268 2.22 9.26602 2.28 9.02602 2.28H2.52602V7.14H8.62602C8.86602 7.14 9.05268 7.2 9.18602 7.32C9.31935 7.44 9.38602 7.61333 9.38602 7.84C9.38602 8.05333 9.31935 8.22 9.18602 8.34C9.05268 8.46 8.86602 8.52 8.62602 8.52H2.52602V14.26C2.52602 14.5133 2.45268 14.72 2.30602 14.88C2.17268 15.0267 1.97935 15.1 1.72602 15.1ZM13.4196 15.1C13.1796 15.1 12.9796 15.0333 12.8196 14.9C12.6729 14.7533 12.5996 14.5533 12.5996 14.3V5.86C12.5996 5.60667 12.6729 5.41333 12.8196 5.28C12.9796 5.13333 13.1796 5.06 13.4196 5.06C13.6596 5.06 13.8529 5.13333 13.9996 5.28C14.1463 5.41333 14.2196 5.60667 14.2196 5.86V14.3C14.2196 14.5667 14.1463 14.7667 13.9996 14.9C13.8529 15.0333 13.6596 15.1 13.4196 15.1ZM13.4196 2.96C13.0996 2.96 12.8396 2.86667 12.6396 2.68C12.4396 2.49333 12.3396 2.24667 12.3396 1.94C12.3396 1.64667 12.4396 1.40667 12.6396 1.22C12.8396 1.03333 13.0996 0.94 13.4196 0.94C13.7396 0.94 13.9996 1.03333 14.1996 1.22C14.3996 1.40667 14.4996 1.64667 14.4996 1.94C14.4996 2.24667 14.3996 2.49333 14.1996 2.68C13.9996 2.86667 13.7396 2.96 13.4196 2.96ZM21.9043 13.82C22.371 13.86 22.6043 14.0733 22.6043 14.46C22.6043 14.6867 22.5176 14.86 22.3443 14.98C22.1843 15.0867 21.9376 15.1267 21.6043 15.1L21.0643 15.06C19.9976 14.98 19.211 14.66 18.7043 14.1C18.1976 13.54 17.9443 12.6933 17.9443 11.56V6.54H16.6043C16.3776 6.54 16.1976 6.48667 16.0643 6.38C15.9443 6.26 15.8843 6.10667 15.8843 5.92C15.8843 5.72 15.9443 5.56 16.0643 5.44C16.1976 5.32 16.3776 5.26 16.6043 5.26H17.9443V3C17.9443 2.74667 18.0176 2.55333 18.1643 2.42C18.311 2.27333 18.511 2.2 18.7643 2.2C19.0043 2.2 19.1976 2.27333 19.3443 2.42C19.491 2.55333 19.5643 2.74667 19.5643 3V5.26H21.7843C21.9976 5.26 22.1643 5.32 22.2843 5.44C22.4176 5.56 22.4843 5.72 22.4843 5.92C22.4843 6.10667 22.4176 6.26 22.2843 6.38C22.1643 6.48667 21.9976 6.54 21.7843 6.54H19.5643V11.64C19.5643 12.3733 19.711 12.9067 20.0043 13.24C20.311 13.56 20.7643 13.74 21.3643 13.78L21.9043 13.82ZM29.1012 5.02C31.4345 5.02 32.6012 6.30667 32.6012 8.88V14.3C32.6012 14.5533 32.5278 14.7533 32.3812 14.9C32.2478 15.0333 32.0545 15.1 31.8012 15.1C31.5478 15.1 31.3478 15.0333 31.2012 14.9C31.0545 14.7533 30.9812 14.5533 30.9812 14.3V8.98C30.9812 8.07333 30.8012 7.41333 30.4412 7C30.0945 6.58667 29.5345 6.38 28.7612 6.38C27.8678 6.38 27.1545 6.65333 26.6212 7.2C26.0878 7.74667 25.8212 8.48667 25.8212 9.42V14.3C25.8212 14.5533 25.7478 14.7533 25.6012 14.9C25.4678 15.0333 25.2745 15.1 25.0212 15.1C24.7678 15.1 24.5678 15.0333 24.4212 14.9C24.2745 14.7533 24.2012 14.5533 24.2012 14.3V5.86C24.2012 5.62 24.2745 5.42667 24.4212 5.28C24.5678 5.13333 24.7678 5.06 25.0212 5.06C25.2612 5.06 25.4478 5.13333 25.5812 5.28C25.7278 5.42667 25.8012 5.61333 25.8012 5.84V6.86C26.1212 6.26 26.5678 5.80667 27.1412 5.5C27.7145 5.18 28.3678 5.02 29.1012 5.02ZM43.1084 12.74C43.255 12.74 43.3817 12.8 43.4884 12.92C43.595 13.04 43.6484 13.1933 43.6484 13.38C43.6484 13.7133 43.415 14.02 42.9484 14.3C42.4684 14.58 41.9617 14.7933 41.4284 14.94C40.895 15.0733 40.375 15.14 39.8684 15.14C38.3617 15.14 37.1684 14.6933 36.2884 13.8C35.4217 12.9067 34.9884 11.6733 34.9884 10.1C34.9884 9.1 35.1817 8.22 35.5684 7.46C35.955 6.68667 36.495 6.08667 37.1884 5.66C37.895 5.23333 38.695 5.02 39.5884 5.02C40.855 5.02 41.8617 5.43333 42.6084 6.26C43.355 7.08667 43.7284 8.20667 43.7284 9.62C43.7284 9.88667 43.675 10.08 43.5684 10.2C43.4617 10.32 43.2884 10.38 43.0484 10.38H36.6084C36.7284 12.6733 37.815 13.82 39.8684 13.82C40.3884 13.82 40.835 13.7533 41.2084 13.62C41.5817 13.4733 41.9817 13.28 42.4084 13.04C42.755 12.84 42.9884 12.74 43.1084 12.74ZM39.6084 6.28C38.755 6.28 38.0684 6.54667 37.5484 7.08C37.0417 7.61333 36.7417 8.36667 36.6484 9.34H42.3084C42.2817 8.35333 42.035 7.6 41.5684 7.08C41.1017 6.54667 40.4484 6.28 39.6084 6.28ZM49.3952 15.14C48.7819 15.14 48.1952 15.0667 47.6352 14.92C47.0886 14.7733 46.6019 14.5667 46.1752 14.3C45.9352 14.14 45.7619 13.9933 45.6552 13.86C45.5619 13.7133 45.5152 13.54 45.5152 13.34C45.5152 13.1667 45.5619 13.0267 45.6552 12.92C45.7619 12.8 45.8952 12.74 46.0552 12.74C46.2152 12.74 46.4486 12.84 46.7552 13.04C47.1552 13.28 47.5486 13.4733 47.9352 13.62C48.3352 13.7533 48.8286 13.82 49.4152 13.82C50.1352 13.82 50.6952 13.6933 51.0952 13.44C51.4952 13.1867 51.6952 12.82 51.6952 12.34C51.6952 12.0467 51.6219 11.8133 51.4752 11.64C51.3286 11.4533 51.0752 11.2933 50.7152 11.16C50.3552 11.0133 49.8286 10.8667 49.1352 10.72C47.9619 10.4667 47.1219 10.1267 46.6152 9.7C46.1086 9.27333 45.8552 8.69333 45.8552 7.96C45.8552 7.38667 46.0152 6.88 46.3352 6.44C46.6552 6 47.0952 5.65333 47.6552 5.4C48.2286 5.14667 48.8752 5.02 49.5952 5.02C50.1152 5.02 50.6152 5.09333 51.0952 5.24C51.5886 5.37333 52.0219 5.56667 52.3952 5.82C52.8486 6.14 53.0752 6.47333 53.0752 6.82C53.0752 6.99333 53.0219 7.14 52.9152 7.26C52.8086 7.38 52.6819 7.44 52.5352 7.44C52.3752 7.44 52.1352 7.32667 51.8152 7.1C51.4419 6.86 51.0886 6.67333 50.7552 6.54C50.4219 6.40667 50.0086 6.34 49.5152 6.34C48.8886 6.34 48.3819 6.48 47.9952 6.76C47.6219 7.04 47.4352 7.41333 47.4352 7.88C47.4352 8.17333 47.5019 8.41333 47.6352 8.6C47.7819 8.77333 48.0152 8.93333 48.3352 9.08C48.6686 9.21333 49.1419 9.34667 49.7552 9.48C50.6619 9.68 51.3619 9.9 51.8552 10.14C52.3619 10.38 52.7219 10.6733 52.9352 11.02C53.1486 11.3667 53.2552 11.8067 53.2552 12.34C53.2552 13.18 52.9019 13.86 52.1952 14.38C51.4886 14.8867 50.5552 15.14 49.3952 15.14ZM59.0046 15.14C58.3913 15.14 57.8046 15.0667 57.2446 14.92C56.6979 14.7733 56.2113 14.5667 55.7846 14.3C55.5446 14.14 55.3713 13.9933 55.2646 13.86C55.1713 13.7133 55.1246 13.54 55.1246 13.34C55.1246 13.1667 55.1713 13.0267 55.2646 12.92C55.3713 12.8 55.5046 12.74 55.6646 12.74C55.8246 12.74 56.0579 12.84 56.3646 13.04C56.7646 13.28 57.1579 13.4733 57.5446 13.62C57.9446 13.7533 58.4379 13.82 59.0246 13.82C59.7446 13.82 60.3046 13.6933 60.7046 13.44C61.1046 13.1867 61.3046 12.82 61.3046 12.34C61.3046 12.0467 61.2313 11.8133 61.0846 11.64C60.9379 11.4533 60.6846 11.2933 60.3246 11.16C59.9646 11.0133 59.4379 10.8667 58.7446 10.72C57.5713 10.4667 56.7313 10.1267 56.2246 9.7C55.7179 9.27333 55.4646 8.69333 55.4646 7.96C55.4646 7.38667 55.6246 6.88 55.9446 6.44C56.2646 6 56.7046 5.65333 57.2646 5.4C57.8379 5.14667 58.4846 5.02 59.2046 5.02C59.7246 5.02 60.2246 5.09333 60.7046 5.24C61.1979 5.37333 61.6313 5.56667 62.0046 5.82C62.4579 6.14 62.6846 6.47333 62.6846 6.82C62.6846 6.99333 62.6313 7.14 62.5246 7.26C62.4179 7.38 62.2913 7.44 62.1446 7.44C61.9846 7.44 61.7446 7.32667 61.4246 7.1C61.0513 6.86 60.6979 6.67333 60.3646 6.54C60.0313 6.40667 59.6179 6.34 59.1246 6.34C58.4979 6.34 57.9913 6.48 57.6046 6.76C57.2313 7.04 57.0446 7.41333 57.0446 7.88C57.0446 8.17333 57.1113 8.41333 57.2446 8.6C57.3913 8.77333 57.6246 8.93333 57.9446 9.08C58.2779 9.21333 58.7513 9.34667 59.3646 9.48C60.2713 9.68 60.9713 9.9 61.4646 10.14C61.9713 10.38 62.3313 10.6733 62.5446 11.02C62.7579 11.3667 62.8646 11.8067 62.8646 12.34C62.8646 13.18 62.5113 13.86 61.8046 14.38C61.0979 14.8867 60.1646 15.14 59.0046 15.14Z" fill="black"/>
</svg>
